<svg xmlns="http://www.w3.org/2000/svg" width="341.333" height="341.333" preserveAspectRatio="xMidYMid meet" version="1.0" viewBox="0 0 256 256"><metadata>Created by potrace 1.11, written by Peter Selinger 2001-2013</metadata><g fill="#000" stroke="none"><path d="M1228 2540 c-58 -31 -82 -73 -86 -152 -3 -54 -8 -68 -21 -69 -9 -1 -56 -1 -106 -2 l-90 0 0 -236 0 -236 -45 2 c-122 5 -114 -1 -126 88 -17 140 -115 236 -269 264 -96 18 -141 15 -159 -11 -38 -54 -8 -84 91 -92 80 -6 135 -25 170 -58 28 -26 59 -107 67 -173 3 -28 8 -65 10 -83 3 -18 8 -52 11 -75 3 -23 8 -53 10 -67 3 -14 7 -45 9 -70 3 -25 8 -58 11 -75 3 -16 12 -82 21 -145 8 -63 19 -144 24 -180 5 -36 12 -85 15 -110 4 -25 10 -69 16 -99 18 -104 16 -107 -45 -114 -163 -17 -263 -172 -217 -336 9 -30 29 -60 65 -97 58 -58 103 -76 194 -78 28 0 52 -3 52 -6 -1 -3 -15 -14 -32 -25 -47 -30 -70 -68 -75 -122 -11 -128 124 -223 236 -165 73 37 111 120 89 199 -9 35 -70 103 -92 103 -8 0 -17 3 -19 8 -7 9 789 9 799 0 4 -5 1 -8 -7 -8 -35 0 -92 -75 -103 -135 -12 -68 47 -157 117 -176 125 -33 226 52 213 180 -5 59 -34 99 -94 130 -32 17 -32 17 85 16 l117 0 1 52 c1 29 -2 53 -5 54 -3 1 -308 2 -678 3 -435 0 -675 5 -680 11 -4 6 -16 15 -27 21 -11 6 -30 31 -42 55 -19 38 -21 50 -12 89 11 53 43 94 85 111 21 8 214 11 679 11 711 1 700 0 744 59 24 32 25 35 36 119 11 79 13 99 20 160 3 30 7 65 10 78 3 12 8 44 11 70 11 108 24 210 28 238 18 100 16 150 -4 182 -23 37 -63 57 -130 65 -25 3 -45 6 -45 6 0 1 0 76 0 169 l0 167 -82 3 c-78 3 -83 4 -84 25 -3 79 -7 96 -25 127 -39 67 -139 95 -198 56 l-26 -16 0 33 0 34 -87 -1 -88 -1 -6 66 c-6 79 -32 126 -82 155 -48 27 -103 28 -149 4z m134 -67 c28 -25 39 -79 29 -148 0 -6 -39 -10 -93 -9 l-93 1 0 59 c0 62 19 98 60 114 27 10 76 2 97 -17z m414 -259 c37 -18 54 -55 51 -116 l-1 -38 -88 0 -88 0 0 53 c0 57 18 93 54 107 30 12 34 12 72 -6z" transform="translate(0.000000,256.000000) scale(0.100000,-0.100000)"/></g></svg>